<mxfile host="app.diagrams.net" modified="2021-05-26T08:37:34.814Z" agent="5.0 (Windows NT 10.0; Win64; x64) AppleWebKit/537.36 (KHTML, like Gecko) Chrome/90.0.4430.212 Safari/537.36 Edg/90.0.818.66" etag="9fTQ6ZMQtFVT2dNVzkJJ" version="14.4.4" type="github">
  <diagram id="NHQl6QHxQ5nZneb_xlHu" name="Page-1">
    <mxGraphModel dx="1422" dy="797" grid="1" gridSize="10" guides="1" tooltips="1" connect="1" arrows="1" fold="1" page="1" pageScale="1" pageWidth="850" pageHeight="1100" math="0" shadow="0">
      <root>
        <mxCell id="0" />
        <mxCell id="1" parent="0" />
        <mxCell id="0490pK50bpzndYRj-9jW-1" value="" style="shape=dataStorage;whiteSpace=wrap;html=1;fixedSize=1;size=10;rotation=-45;fillColor=#000000;strokeColor=none;" vertex="1" parent="1">
          <mxGeometry x="240" y="355" width="40" height="80" as="geometry" />
        </mxCell>
        <mxCell id="0490pK50bpzndYRj-9jW-3" value="" style="shape=dataStorage;whiteSpace=wrap;html=1;fixedSize=1;size=10;rotation=45;fillColor=#000000;strokeColor=none;" vertex="1" parent="1">
          <mxGeometry x="500" y="411" width="40" height="80" as="geometry" />
        </mxCell>
        <mxCell id="0490pK50bpzndYRj-9jW-4" value="" style="shape=trapezoid;perimeter=trapezoidPerimeter;whiteSpace=wrap;html=1;fixedSize=1;size=9.999999999999773;rotation=-90;fillColor=#000000;strokeColor=none;" vertex="1" parent="1">
          <mxGeometry x="391.25" y="26.25" width="50" height="797.5" as="geometry" />
        </mxCell>
        <mxCell id="0490pK50bpzndYRj-9jW-6" value="" style="shape=or;whiteSpace=wrap;html=1;rotation=-90;" vertex="1" parent="1">
          <mxGeometry x="490" y="357" width="20" height="80" as="geometry" />
        </mxCell>
        <mxCell id="0490pK50bpzndYRj-9jW-8" value="" style="shape=crossbar;whiteSpace=wrap;html=1;rounded=1;fillColor=#000000;" vertex="1" parent="1">
          <mxGeometry x="450" y="360" width="110" height="20" as="geometry" />
        </mxCell>
        <mxCell id="0490pK50bpzndYRj-9jW-9" value="" style="shape=crossbar;whiteSpace=wrap;html=1;rounded=1;fillColor=#000000;" vertex="1" parent="1">
          <mxGeometry x="270" y="500" width="250" height="20" as="geometry" />
        </mxCell>
        <mxCell id="0490pK50bpzndYRj-9jW-11" value="" style="endArrow=none;dashed=1;html=1;dashPattern=1 3;strokeWidth=2;fillColor=#f8cecc;strokeColor=#b85450;exitX=0.5;exitY=0;exitDx=0;exitDy=0;entryX=0.5;entryY=1;entryDx=0;entryDy=0;" edge="1" parent="1" source="0490pK50bpzndYRj-9jW-4" target="0490pK50bpzndYRj-9jW-4">
          <mxGeometry width="50" height="50" relative="1" as="geometry">
            <mxPoint x="420" y="560" as="sourcePoint" />
            <mxPoint x="470" y="510" as="targetPoint" />
          </mxGeometry>
        </mxCell>
        <mxCell id="0490pK50bpzndYRj-9jW-12" value="" style="shape=crossbar;whiteSpace=wrap;html=1;rounded=1;fillColor=#000000;" vertex="1" parent="1">
          <mxGeometry x="520" y="500" width="290" height="20" as="geometry" />
        </mxCell>
        <mxCell id="0490pK50bpzndYRj-9jW-13" value="" style="shape=crossbar;whiteSpace=wrap;html=1;rounded=1;fillColor=#000000;" vertex="1" parent="1">
          <mxGeometry x="20" y="500" width="250" height="20" as="geometry" />
        </mxCell>
        <mxCell id="0490pK50bpzndYRj-9jW-14" value="" style="shape=dataStorage;whiteSpace=wrap;html=1;fixedSize=1;size=10;rotation=-45;fillColor=#000000;strokeColor=none;" vertex="1" parent="1">
          <mxGeometry x="62.8" y="380.91" width="25" height="50" as="geometry" />
        </mxCell>
        <mxCell id="0490pK50bpzndYRj-9jW-15" value="" style="shape=crossbar;whiteSpace=wrap;html=1;rounded=1;fillColor=#000000;" vertex="1" parent="1">
          <mxGeometry x="20" y="530" width="60" height="20" as="geometry" />
        </mxCell>
        <mxCell id="0490pK50bpzndYRj-9jW-16" value="" style="shape=crossbar;whiteSpace=wrap;html=1;rounded=1;fillColor=#000000;" vertex="1" parent="1">
          <mxGeometry x="80" y="530" width="190" height="20" as="geometry" />
        </mxCell>
        <mxCell id="0490pK50bpzndYRj-9jW-17" value="" style="shape=crossbar;whiteSpace=wrap;html=1;rounded=1;fillColor=#000000;" vertex="1" parent="1">
          <mxGeometry x="270" y="530" width="250" height="20" as="geometry" />
        </mxCell>
        <mxCell id="0490pK50bpzndYRj-9jW-18" value="" style="shape=crossbar;whiteSpace=wrap;html=1;rounded=1;fillColor=#000000;" vertex="1" parent="1">
          <mxGeometry x="530" y="510" width="290" height="20" as="geometry" />
        </mxCell>
      </root>
    </mxGraphModel>
  </diagram>
</mxfile>
